<?xml version="1.0" encoding="UTF-8" standalone="no"?>
<!-- Created with Inkscape (http://www.inkscape.org/) -->

<svg
   width="210mm"
   height="297mm"
   viewBox="0 0 210 297"
   version="1.1"
   id="svg1"
   inkscape:version="1.3.2 (1:1.3.2+202311252150+091e20ef0f)"
   sodipodi:docname="circles_example.svg"
   xmlns:inkscape="http://www.inkscape.org/namespaces/inkscape"
   xmlns:sodipodi="http://sodipodi.sourceforge.net/DTD/sodipodi-0.dtd"
   xmlns="http://www.w3.org/2000/svg"
   xmlns:svg="http://www.w3.org/2000/svg">
  <sodipodi:namedview
     id="namedview1"
     pagecolor="#ffffff"
     bordercolor="#000000"
     borderopacity="0.25"
     inkscape:showpageshadow="2"
     inkscape:pageopacity="0.0"
     inkscape:pagecheckerboard="0"
     inkscape:deskcolor="#d1d1d1"
     inkscape:document-units="mm"
     inkscape:zoom="0.72693603"
     inkscape:cx="396.87124"
     inkscape:cy="561.25984"
     inkscape:window-width="1920"
     inkscape:window-height="1016"
     inkscape:window-x="0"
     inkscape:window-y="27"
     inkscape:window-maximized="1"
     inkscape:current-layer="layer1" />
  <defs
     id="defs1" />
  <g
     inkscape:label="Layer 1"
     inkscape:groupmode="layer"
     id="layer1">
    <path
       style="fill:#ffcc00;stroke:#000000;stroke-width:1.065;stroke-opacity:1"
       id="path1"
       sodipodi:type="arc"
       sodipodi:cx="71.815407"
       sodipodi:cy="52.361603"
       sodipodi:rx="36.423195"
       sodipodi:ry="38.109756"
       sodipodi:start="0.16040992"
       sodipodi:end="5.4184813"
       sodipodi:arc-type="slice"
       d="M 107.771,58.448603 A 36.423195,38.109756 0 0 1 75.3019,90.296364 36.423195,38.109756 0 0 1 37.627346,65.506187 36.423195,38.109756 0 0 1 50.996774,21.090681 36.423195,38.109756 0 0 1 95.449156,23.363766 L 71.815407,52.361603 Z"
       transform="rotate(13.845859)" />
    <ellipse
       style="fill:#1a1a1a;stroke:#000000;stroke-width:0.745222;stroke-opacity:1"
       id="path2"
       cx="35.870968"
       cy="56.936142"
       rx="5.740715"
       ry="5.4463153"
       transform="matrix(0.9724051,-0.23329878,0.26483067,0.96429493,0,0)" />
    <path
       style="fill:#ff00ff;stroke:#000000;stroke-width:1;stroke-opacity:1;stroke-dasharray:none"
       id="path3"
       sodipodi:type="arc"
       sodipodi:cx="4.8525395"
       sodipodi:cy="175.76183"
       sodipodi:rx="30.920973"
       sodipodi:ry="32.147484"
       sodipodi:start="0"
       sodipodi:end="5.3820056"
       sodipodi:arc-type="slice"
       d="m 35.773512,175.76183 a 30.920973,32.147484 0 0 1 -24.013417,31.33506 30.920973,32.147484 0 0 1 -34.742318,-17.33494 30.920973,32.147484 0 0 1 8.490978,-39.0801 30.920973,32.147484 0 0 1 38.535982,-0.12557 L 4.8525395,175.76183 Z"
       transform="rotate(-64.986673)" />
    <path
       style="fill:#ff00ff;stroke:#000000;stroke-width:1.19512;stroke-dasharray:none;stroke-opacity:1"
       id="path4"
       sodipodi:type="arc"
       sodipodi:cx="-130.63745"
       sodipodi:cy="124.87685"
       sodipodi:rx="28.952118"
       sodipodi:ry="26.905947"
       sodipodi:start="0"
       sodipodi:end="1.0022055"
       sodipodi:arc-type="slice"
       d="m -101.68533,124.87685 a 28.952118,26.905947 0 0 1 -13.36299,22.67258 l -15.58913,-22.67258 z"
       transform="matrix(-0.42766058,-0.90393939,0.83782798,-0.54593431,0,0)"
       inkscape:transform-center-x="-7.3462417"
       inkscape:transform-center-y="-1.0494881" />
    <path
       style="fill:#999999;stroke:#000000;stroke-width:1;stroke-dasharray:none;stroke-opacity:1"
       id="path5"
       sodipodi:type="arc"
       sodipodi:cx="-153.84764"
       sodipodi:cy="56.774559"
       sodipodi:rx="27.994411"
       sodipodi:ry="29.903725"
       sodipodi:start="2.1920482"
       sodipodi:end="1.0022055"
       sodipodi:arc-type="chord"
       d="m -170.14189,81.090786 a 27.994411,29.903725 0 0 1 -10.24546,-33.830487 27.994411,29.903725 0 0 1 27.27673,-20.379099 27.994411,29.903725 0 0 1 26.23472,21.884529 27.994411,29.903725 0 0 1 -11.89829,33.20752 z"
       sodipodi:open="true"
       transform="rotate(-90.942267)" />
    <path
       style="fill:none;stroke:#000000;stroke-width:1;stroke-dasharray:none;stroke-opacity:1"
       id="path6"
       sodipodi:type="arc"
       sodipodi:cx="27.404116"
       sodipodi:cy="196.51076"
       sodipodi:rx="22.532619"
       sodipodi:ry="24.966074"
       sodipodi:start="2.1920482"
       sodipodi:end="5.3765426"
       sodipodi:open="true"
       sodipodi:arc-type="arc"
       d="M 14.288924,216.81193 A 22.532619,24.966074 0 0 1 5.0125565,193.72155 22.532619,24.966074 0 0 1 18.684643,173.48974 22.532619,24.966074 0 0 1 41.293062,176.8515"
       transform="rotate(-31.621921)" />
    <ellipse
       style="fill:#ff9955;stroke:#000000;stroke-width:1;stroke-dasharray:none;stroke-opacity:1"
       id="path7"
       cx="83.114571"
       cy="245.28346"
       rx="31.564308"
       ry="29.4939" />
    <path
       style="fill:#ff9955;stroke:#000000;stroke-width:1;stroke-dasharray:none;stroke-opacity:1"
       id="path8"
       sodipodi:type="arc"
       sodipodi:cx="40.377022"
       sodipodi:cy="265.61813"
       sodipodi:rx="15.621121"
       sodipodi:ry="11.434983"
       sodipodi:start="6.1098386"
       sodipodi:end="3.5919185"
       sodipodi:arc-type="arc"
       d="m 55.76403,263.64583 a 15.621121,11.434983 0 0 1 -8.048337,12.06685 15.621121,11.434983 0 0 1 -18.168519,-1.85374 15.621121,11.434983 0 0 1 -3.233931,-13.21798"
       transform="rotate(-9.5414126)"
       sodipodi:open="true" />
    <rect
       style="fill:#000000;stroke:#000000;stroke-width:1;stroke-dasharray:none;stroke-opacity:1"
       id="rect8"
       width="5.2854376"
       height="16.502102"
       x="70.773201"
       y="228.59648" />
    <rect
       style="fill:#000000;stroke:#000000;stroke-width:1;stroke-dasharray:none;stroke-opacity:1"
       id="rect9"
       width="5.321404"
       height="16.740181"
       x="89.547737"
       y="229.13625" />
  </g>
</svg>
