<?xml version="1.0" encoding="UTF-8" standalone="no"?>
<!-- Created with Inkscape (http://www.inkscape.org/) -->

<svg
   width="297mm"
   height="210mm"
   viewBox="0 0 1122.5197 793.70081"
   version="1.1"
   id="svg1"
   inkscape:version="1.3.2 (1:1.3.2+202311252150+091e20ef0f)"
   sodipodi:docname="claw_parts.svg"
   xmlns:inkscape="http://www.inkscape.org/namespaces/inkscape"
   xmlns:sodipodi="http://sodipodi.sourceforge.net/DTD/sodipodi-0.dtd"
   xmlns="http://www.w3.org/2000/svg"
   xmlns:svg="http://www.w3.org/2000/svg">
  <sodipodi:namedview
     id="namedview1"
     pagecolor="#ffffff"
     bordercolor="#cccccc"
     borderopacity="1"
     inkscape:showpageshadow="0"
     inkscape:pageopacity="1"
     inkscape:pagecheckerboard="0"
     inkscape:deskcolor="#d1d1d1"
     inkscape:document-units="mm"
     inkscape:zoom="1.0280952"
     inkscape:cx="561.71839"
     inkscape:cy="396.85039"
     inkscape:window-width="1920"
     inkscape:window-height="1016"
     inkscape:window-x="0"
     inkscape:window-y="27"
     inkscape:window-maximized="1"
     inkscape:current-layer="layer1" />
  <defs
     id="defs1" />
  <g
     inkscape:label="Layer 1"
     inkscape:groupmode="layer"
     id="layer1">
    <path
       id="path1-7-9"
       style="fill:#00ffff;fill-opacity:1;stroke:#000000;stroke-width:2.84572"
       inkscape:transform-center-x="-100.57479"
       inkscape:transform-center-y="-205.59968"
       d="M 872.10567,208.29988 806.39748,365.55432 586.49035,629.96526 a 84.621416,84.621416 0 0 0 -27.58751,33.17293 l -0.0695,0.0838 0.0215,0.007 a 84.621416,84.621416 0 0 0 -4.28766,59.25473 84.621416,84.621416 0 0 0 105.10383,57.21925 84.621416,84.621416 0 0 0 54.59415,-50.18885 l 211.77896,-421.9868 z" />
    <path
       id="path1-2-0-9-2"
       style="fill:#0000ff;fill-opacity:0.655998;stroke:#000000;stroke-width:2.88858"
       d="M 479.96944,150.66359 254.41766,261.4834 229.58752,700.815 a 85.906855,85.906855 0 0 0 85.90577,85.9057 85.906855,85.906855 0 0 0 85.90576,-85.9057 85.906855,85.906855 0 0 0 -3.56425,-24.43823 L 350.17887,349.46864 528.5196,222.51101 Z" />
    <circle
       style="fill:#1a1a1a;fill-opacity:1;stroke:#000000;stroke-width:3.3545"
       id="path4-20-2-6"
       cx="320.16144"
       cy="708.78168"
       r="35.247654" />
    <circle
       style="fill:#c83737;fill-opacity:1;stroke:none;stroke-width:3.3688"
       id="path4-20-2"
       cx="639.30182"
       cy="705.55743"
       r="35.397919" />
  </g>
</svg>
